<?xml version="1.0" encoding="UTF-8" standalone="no"?>
<!-- Created with Inkscape (http://www.inkscape.org/) -->

<svg
   width="120mm"
   height="65mm"
   viewBox="0 0 120 65"
   version="1.1"
   id="svg5"
   inkscape:version="1.2.2 (b0a84865, 2022-12-01)"
   sodipodi:docname="ansible.svg"
   xml:space="preserve"
   inkscape:export-filename="ansible.png"
   inkscape:export-xdpi="96"
   inkscape:export-ydpi="96"
   xmlns:inkscape="http://www.inkscape.org/namespaces/inkscape"
   xmlns:sodipodi="http://sodipodi.sourceforge.net/DTD/sodipodi-0.dtd"
   xmlns="http://www.w3.org/2000/svg"
   xmlns:svg="http://www.w3.org/2000/svg"><sodipodi:namedview
     id="namedview7"
     pagecolor="#ffffff"
     bordercolor="#000000"
     borderopacity="0.25"
     inkscape:showpageshadow="2"
     inkscape:pageopacity="0.0"
     inkscape:pagecheckerboard="0"
     inkscape:deskcolor="#d1d1d1"
     inkscape:document-units="mm"
     showgrid="false"
     inkscape:zoom="0.74902687"
     inkscape:cx="100.79745"
     inkscape:cy="208.27023"
     inkscape:window-width="1440"
     inkscape:window-height="872"
     inkscape:window-x="640"
     inkscape:window-y="1440"
     inkscape:window-maximized="1"
     inkscape:current-layer="layer1" /><defs
     id="defs2"><style
       id="style270">.cls-1{fill:#fff;}</style></defs><g
     inkscape:label="Layer 1"
     inkscape:groupmode="layer"
     id="layer1"><rect
       style="font-variation-settings:'wght' 500;fill:#000000;stroke-width:0.249271"
       id="rect234"
       width="119.90182"
       height="65.078247"
       x="0.10950514"
       y="0.10950469" /><g
       id="g316"
       transform="matrix(0.10581263,0,0,0.10581263,4.7561856,16.467924)"><polygon
         points="140.692,148.221 182.438,181.102 154.799,112.893 "
         fill="#ffffff"
         id="polygon305" /><path
         d="M 153,46.12714 A 106.79132,106.79132 0 1 0 259.79286,152.92 106.79751,106.79751 0 0 0 153,46.12714 Z m 43.82007,161.46533 c -2.08093,0 -3.67822,-0.81091 -5.89673,-2.60413 l -55.1178,-44.52991 -18.46741,46.268 h -15.9613 L 148.03346,94.51422 a 7.08784,7.08784 0 0 1 6.76587,-4.51355 6.85643,6.85643 0 0 1 6.58521,4.51355 l 42.51025,102.30072 a 10.11133,10.11133 0 0 1 0.72827,3.1488 7.62408,7.62408 0 0 1 -7.80298,7.62873 z"
         fill="#ffffff"
         id="path307" /></g><g
       id="g380"
       transform="matrix(0.56899482,0,0,0.56899482,23.671507,19.522168)"><g
         id="g301"
         transform="matrix(0.26458333,0,0,0.26458333,11.827409,-15.428189)"><path
           class="cls-1"
           d="m 186.70849,172.89462 a 3.43056,3.43056 0 0 1 -2.87092,-1.21825 l -32.58294,-40.57806 v 41.39022 h -7.43037 v -50.96621 a 3.76836,3.76836 0 0 1 3.80207,-3.65286 3.46193,3.46193 0 0 1 2.95024,1.29946 l 32.49984,40.49684 V 118.438 h 7.43037 v 50.885 a 3.64592,3.64592 0 0 1 -3.79828,3.57164"
           id="path276" /><path
           class="cls-1"
           d="m 248.16525,173.38136 a 67.66519,67.66519 0 0 1 -22.45543,-4.05705 l 1.77353,-5.84381 a 73.16883,73.16883 0 0 0 20.6819,3.49042 c 9.37012,0 14.26577,-3.16556 14.26577,-7.62869 0,-4.05894 -3.80018,-6.08746 -16.88359,-11.93128 -13.08341,-5.84382 -18.23217,-9.576 -18.23217,-16.88171 0,-9.168 7.42848,-12.904 21.43928,-12.904 a 87.83016,87.83016 0 0 1 19.92451,2.59893 l -1.18238,6.00436 a 89.36194,89.36194 0 0 0 -18.57215,-2.191 c -9.87442,0 -13.92768,1.78487 -13.92768,6.2499 0,4.38192 2.954,6.248 16.7986,12.33547 14.60387,6.41233 18.31716,9.6591 18.31716,16.31131 0,9.6591 -9.62511,14.4471 -21.94735,14.4471"
           id="path278" /><rect
           class="cls-1"
           x="305.31543"
           y="118.43741"
           width="7.6796799"
           height="54.05056"
           id="rect280" /><path
           class="cls-1"
           d="m 378.33742,147.9789 h -19.08023 v 18.3436 h 19.08023 c 6.4992,0 10.4656,-3.89651 10.4656,-9.33424 0,-5.11287 -4.13448,-9.00937 -10.4656,-9.00937 m -3.71708,-23.37337 h -15.36315 v 17.28779 h 15.36316 c 6.163,0 10.63749,-3.73408 10.63749,-8.92816 0,-5.11286 -3.88328,-8.35964 -10.63749,-8.35964 m 3.8002,47.88377 H 355.4608 a 3.73386,3.73386 0 0 1 -3.88328,-3.65286 v -46.74483 a 3.78454,3.78454 0 0 1 3.88328,-3.65286 h 18.99334 c 11.648,0 18.57026,5.43773 18.57026,13.95981 0,4.62368 -2.87092,8.92627 -7.26227,11.44209 6.503,1.86609 10.89059,6.979 10.89059,13.14764 0,8.6014 -7.5116,15.501 -18.23217,15.501"
           id="path282" /><path
           class="cls-1"
           d="m 433.54336,172.4893 a 3.76545,3.76545 0 0 1 -3.79642,-3.65286 v -50.39771 h 7.6797 v 47.47769 h 30.5582 v 6.57287 h -34.44148 z"
           id="path284" /><path
           class="cls-1"
           d="m 520.34855,173.38136 c -15.70124,0 -25.15636,-5.51895 -25.15636,-16.63617 0,-5.2753 3.12589,-10.30695 9.202,-12.66034 -4.89565,-2.92191 -7.42661,-7.06206 -7.42661,-11.60641 0,-10.0633 8.18965,-14.85319 23.55093,-14.85319 a 95.987,95.987 0 0 1 18.48714,1.868 l -0.84426,6.00436 a 121.21837,121.21837 0 0 0 -18.23407,-1.53934 c -9.96131,0 -15.28,2.59515 -15.28,8.84505 0,4.95043 4.89755,8.84694 11.39863,8.84694 h 13.16654 a 3.12831,3.12831 0 1 1 0,6.248 h -14.17892 c -7.43035,0 -12.156,3.48853 -12.156,8.84694 0,7.87234 7.68155,10.22573 17.30477,10.22573 a 89.05215,89.05215 0 0 0 18.06219,-1.94731 l 1.09926,5.92314 a 78.75064,78.75064 0 0 1 -18.99521,2.43461"
           id="path286" /><path
           class="cls-1"
           d="m 86.66064,128.57494 13.45362,31.92188 -20.31736,-15.3877 z m 23.90033,39.2767 -20.69133,-47.88 a 3.34511,3.34511 0 0 0 -3.209,-2.10974 3.45329,3.45329 0 0 0 -3.29021,2.10974 l -22.7142,52.51689 h 7.76846 l 8.99237,-21.65082 26.82979,20.83866 a 4.44562,4.44562 0 0 0 2.87091,1.21825 3.64559,3.64559 0 0 0 3.79829,-3.56975 4.62448,4.62448 0 0 0 -0.35509,-1.47323"
           id="path288" /></g></g></g><style
     type="text/css"
     id="style495">
	.st0{fill:#848484;}
	.st1{fill:#262626;}
	.st2{fill:#88CE02;}
	.st3{fill:#EFEFEF;}
	.st4{fill:#001423;}
	.st5{opacity:0.3;enable-background:new    ;}
	.st6{fill-opacity:0;}
	.st7{opacity:0.4;enable-background:new    ;}
	.st8{fill:#88CE02;stroke:#000000;stroke-width:1.586;stroke-linejoin:round;}
</style></svg>
