<?xml version="1.0" encoding="UTF-8" standalone="no"?>
<!-- Created with Inkscape (http://www.inkscape.org/) -->

<svg
   width="120mm"
   height="65mm"
   viewBox="0 0 120 65"
   version="1.1"
   id="svg5"
   inkscape:version="1.2.2 (b0a84865, 2022-12-01)"
   sodipodi:docname="gsap.svg"
   xml:space="preserve"
   inkscape:export-filename="gsap.png"
   inkscape:export-xdpi="96"
   inkscape:export-ydpi="96"
   xmlns:inkscape="http://www.inkscape.org/namespaces/inkscape"
   xmlns:sodipodi="http://sodipodi.sourceforge.net/DTD/sodipodi-0.dtd"
   xmlns="http://www.w3.org/2000/svg"
   xmlns:svg="http://www.w3.org/2000/svg"><sodipodi:namedview
     id="namedview7"
     pagecolor="#ffffff"
     bordercolor="#000000"
     borderopacity="0.25"
     inkscape:showpageshadow="2"
     inkscape:pageopacity="0.0"
     inkscape:pagecheckerboard="0"
     inkscape:deskcolor="#d1d1d1"
     inkscape:document-units="mm"
     showgrid="false"
     inkscape:zoom="1.851143"
     inkscape:cx="298.46424"
     inkscape:cy="138.83314"
     inkscape:window-width="2560"
     inkscape:window-height="1412"
     inkscape:window-x="0"
     inkscape:window-y="0"
     inkscape:window-maximized="1"
     inkscape:current-layer="layer1" /><defs
     id="defs2" /><g
     inkscape:label="Layer 1"
     inkscape:groupmode="layer"
     id="layer1"><rect
       style="font-variation-settings:'wght' 500;fill:#ffffff;stroke-width:0.249271"
       id="rect234"
       width="119.90182"
       height="65.078247"
       x="0.10950514"
       y="0.10950469" /><g
       id="g707"
       transform="matrix(0.13740732,0,0,0.13740732,20.507288,5.9142854)"><path
         class="st0"
         d="m 202.01,223.69 c 0,-0.61 0.26,-0.87 0.87,-0.87 h 9.65 c 0.35,0 0.52,0.26 0.52,0.87 v 0.43 c 0,0.61 -0.17,0.87 -0.52,0.87 h -8.08 v 6.34 h 7.21 c 0.35,0 0.52,0.26 0.52,0.87 v 0.43 c 0,0.61 -0.17,0.87 -0.52,0.87 h -7.21 v 6.78 h 8.08 c 0.35,0 0.52,0.26 0.52,0.87 v 0.43 c 0,0.61 -0.17,0.87 -0.52,0.87 h -9.73 c -0.61,0 -0.87,-0.26 -0.87,-0.87 v -17.9 z m 14.69,18.08 0.09,-9.82 v -0.32 c -0.03,-2.04 -0.35,-3.07 -0.35,-3.15 0,-0.52 1.13,-0.61 1.48,-0.61 0.7,0 0.78,1.13 0.96,1.82 1.13,-1.3 2.78,-2.09 4.35,-2.09 2.87,0 4.52,1.65 4.52,4.52 v 9.65 c 0,0.35 -0.35,0.61 -1.13,0.61 h -0.09 c -0.78,0 -1.13,-0.26 -1.13,-0.61 v -9.39 c 0,-1.65 -1.04,-2.69 -2.87,-2.69 -1.22,0 -2.61,0.78 -3.48,1.91 v 10.17 c 0,0.35 -0.35,0.61 -1.13,0.61 h -0.09 c -0.78,-0.01 -1.13,-0.27 -1.13,-0.61 z m 17.21,-0.61 c -1.04,-0.43 -1.74,-1.13 -1.74,-2.26 0,-1.39 1.13,-2 2.09,-2.35 -1.65,-0.78 -2.52,-2.35 -2.52,-4.17 0,-2.61 1.91,-4.78 5.56,-4.78 0.7,0 1.3,0.09 1.82,0.17 h 4.78 c 0.35,0 0.52,0.26 0.52,0.87 v 0.35 c 0,0.61 -0.17,0.87 -0.52,0.87 h -1.91 c 0.61,0.78 0.96,1.65 0.96,2.61 0,2.61 -1.91,4.78 -5.56,4.78 h -0.26 c -0.7,0 -2.35,0.17 -2.35,1.13 0,2.17 9.39,0 9.39,5.47 0,2.43 -2.43,4.35 -6.95,4.35 h -0.31 c -3.49,-0.04 -5.95,-0.86 -5.95,-3.65 -0.18,-1.65 1.12,-2.78 2.95,-3.39 z m 3.48,4.95 c 2.52,0 4.17,-0.96 4.17,-2.26 0,-1.65 -2.95,-1.82 -5.56,-2.26 -1.13,0.43 -2.78,1.39 -2.78,2.61 -0.01,1.56 1.91,1.91 4.17,1.91 z m 3.04,-13.73 c 0,-2.13 -1.34,-2.76 -3.03,-2.78 h -0.1 c -1.74,0 -3.13,0.7 -3.13,2.78 0,2.17 1.39,2.78 3.13,2.78 h 0.19 c 1.65,-0.05 2.94,-0.69 2.94,-2.78 z m 15.12,0.87 v -1.3 c 0,-1.22 -0.78,-2.35 -3.04,-2.35 -2.52,0 -4.08,1.13 -4.35,1.13 -0.35,0 -0.96,-1.04 -0.96,-1.39 0,-0.7 2.43,-1.74 5.21,-1.74 3.48,0 5.48,1.65 5.48,4.35 v 6.17 c 0,2.26 0.35,3.39 0.35,3.48 0,0.52 -1.13,0.61 -1.48,0.61 -0.7,0 -0.78,-1.13 -0.96,-1.91 -1.04,1.13 -2.61,2.09 -4.69,2.09 -2.69,0 -4.78,-1.3 -4.78,-4.17 0.01,-4.62 5.05,-4.97 9.22,-4.97 z m -4.35,7.13 c 2,0 3.22,-0.96 4.35,-1.91 v -3.3 h -0.57 c -2.78,0.01 -6.12,0.19 -6.12,2.87 0,1.55 0.78,2.34 2.34,2.34 z m 13.04,0.78 c -1.04,-0.43 -1.74,-1.13 -1.74,-2.26 0,-1.39 1.13,-2 2.09,-2.35 -1.65,-0.78 -2.52,-2.35 -2.52,-4.17 0,-2.61 1.91,-4.78 5.56,-4.78 0.7,0 1.3,0.09 1.82,0.17 h 4.78 c 0.35,0 0.52,0.26 0.52,0.87 v 0.35 c 0,0.61 -0.17,0.87 -0.52,0.87 h -1.91 c 0.61,0.78 0.96,1.65 0.96,2.61 0,2.61 -1.91,4.78 -5.56,4.78 h -0.26 c -0.7,0 -2.35,0.17 -2.35,1.13 0,2.17 9.39,0 9.39,5.47 0,2.43 -2.43,4.35 -6.95,4.35 h -0.31 c -3.49,-0.04 -5.95,-0.86 -5.95,-3.65 -0.18,-1.65 1.04,-2.78 2.95,-3.39 z m 3.39,4.95 c 2.52,0 4.17,-0.96 4.17,-2.26 0,-1.65 -2.96,-1.82 -5.56,-2.26 -1.13,0.43 -2.78,1.39 -2.78,2.61 0,1.56 1.91,1.91 4.17,1.91 z m 3.04,-13.73 c 0,-2.13 -1.34,-2.76 -3.03,-2.78 h -0.1 c -1.74,0 -3.13,0.7 -3.13,2.78 0,2.17 1.39,2.78 3.13,2.78 h 0.19 c 1.65,-0.05 2.94,-0.69 2.94,-2.78 z m 7.04,-8.69 v -1.65 c 0,-0.35 0.35,-0.61 1.13,-0.61 h 0.35 c 0.78,0 1.13,0.26 1.13,0.61 v 1.65 c 0,0.35 -0.35,0.61 -1.13,0.61 h -0.35 c -0.78,0 -1.13,-0.26 -1.13,-0.61 z m 0.09,4.61 c 0,-0.35 0.35,-0.61 1.13,-0.61 h 0.09 c 0.78,0 1.13,0.26 1.13,0.61 v 13.38 c 0,0.35 -0.35,0.61 -1.13,0.61 h -0.09 c -0.78,0 -1.13,-0.26 -1.13,-0.61 z m 7.21,3.65 c 0,-2.26 -0.35,-3.39 -0.35,-3.48 0,-0.52 1.13,-0.61 1.48,-0.61 0.7,0 0.78,1.13 0.96,1.82 1.13,-1.3 2.78,-2.09 4.35,-2.09 2.87,0 4.52,1.65 4.52,4.52 v 9.65 c 0,0.35 -0.35,0.61 -1.13,0.61 h -0.09 c -0.78,0 -1.13,-0.26 -1.13,-0.61 v -9.39 c 0,-1.65 -1.04,-2.69 -2.87,-2.69 -1.22,0 -2.61,0.78 -3.48,1.91 v 10.17 c 0,0.35 -0.35,0.61 -1.13,0.61 h -0.09 c -0.78,0 -1.13,-0.26 -1.13,-0.61 z m 17.12,9.21 c -1.04,-0.43 -1.74,-1.13 -1.74,-2.26 0,-1.39 1.13,-2 2.09,-2.35 -1.65,-0.78 -2.52,-2.35 -2.52,-4.17 0,-2.61 1.91,-4.78 5.56,-4.78 0.7,0 1.3,0.09 1.82,0.17 h 4.78 c 0.35,0 0.52,0.26 0.52,0.87 v 0.35 c 0,0.61 -0.17,0.87 -0.52,0.87 h -2 c 0.61,0.78 0.96,1.65 0.96,2.61 0,2.61 -1.91,4.78 -5.56,4.78 h -0.26 c -0.7,0 -2.35,0.17 -2.35,1.13 0,2.17 9.39,0 9.39,5.47 0,2.43 -2.43,4.35 -6.95,4.35 h -0.31 c -3.49,-0.04 -5.95,-0.86 -5.95,-3.65 -0.09,-1.65 1.22,-2.78 3.04,-3.39 z m 3.48,4.95 c 2.52,0 4.17,-0.96 4.17,-2.26 0,-1.65 -2.95,-1.82 -5.56,-2.26 -1.13,0.43 -2.78,1.39 -2.78,2.61 0,1.56 1.82,1.91 4.17,1.91 z m 3.04,-13.73 c 0,-2.13 -1.34,-2.76 -3.03,-2.78 h -0.1 c -1.74,0 -3.13,0.7 -3.13,2.78 0,2.17 1.39,2.78 3.13,2.78 h 0.19 c 1.65,-0.05 2.94,-0.69 2.94,-2.78 z m 14.16,-2.61 h -1.39 c -0.35,0 -0.52,-0.26 -0.52,-0.87 v -0.35 c 0,-0.61 0.17,-0.87 0.52,-0.87 h 1.39 l 0.35,-2.95 c 0,-0.35 0.26,-0.61 0.87,-0.61 h 0.26 c 0.61,0 0.87,0.26 0.87,0.61 v 2.95 h 2.35 c 0.35,0 0.52,0.26 0.52,0.87 v 0.35 c 0,0.61 -0.17,0.87 -0.52,0.87 h -2.35 v 8.6 c 0,1.65 0.7,2.09 1.48,2.09 0.78,0 0.96,-0.17 1.22,-0.17 0.35,0 0.61,1.04 0.61,1.3 0,0.73 -1.15,0.86 -1.87,0.87 h -0.13 c -1.37,0 -3.5,-0.59 -3.56,-3.67 z m 9.13,-7.73 c 0,-0.35 0.35,-0.61 1.13,-0.61 h 0.09 c 0.78,0 1.13,0.26 1.13,0.61 v 7.47 c 0.96,-0.96 2.43,-1.91 4.26,-1.91 1.82,0 4.43,0.7 4.43,4.52 v 9.65 c 0,0.35 -0.35,0.61 -1.13,0.61 h -0.09 c -0.78,0 -1.13,-0.26 -1.13,-0.61 v -9.39 c 0,-1.65 -0.96,-2.69 -2.87,-2.69 -2.09,0 -3.48,1.91 -3.48,1.91 v 10.17 c 0,0.35 -0.35,0.61 -1.13,0.61 h -0.09 c -0.78,0 -1.13,-0.26 -1.13,-0.61 z m 21.12,5.56 c 3.82,0 5.74,2.52 5.74,7.21 0,0.35 -0.61,1.13 -0.96,1.13 h -8.78 c 0.26,3.04 1.56,4.43 4.26,4.43 2.43,0 3.74,-1.13 4.08,-1.13 0.35,0 0.96,1.04 0.96,1.39 0,0.7 -2.17,1.74 -4.95,1.74 -4.61,0 -6.78,-2.35 -6.78,-7.3 -0.09,-4.86 2.17,-7.47 6.43,-7.47 z m 3.21,6.34 c 0,-2.87 -1.13,-4.35 -3.3,-4.35 -2.43,0 -3.65,1.48 -3.91,4.35 z m 13.04,-10.51 c 0,-0.35 0.35,-0.61 1.13,-0.61 h 0.26 c 0.78,0 1.13,0.26 1.13,0.61 v 18.34 c 0,0.35 -0.35,0.61 -1.13,0.61 h -0.26 c -0.78,0 -1.13,-0.26 -1.13,-0.61 z m 7.47,18.34 0.09,-9.82 v -0.32 c -0.03,-2.04 -0.34,-3.07 -0.34,-3.15 0,-0.52 1.13,-0.61 1.48,-0.61 0.7,0 0.78,1.13 0.96,1.82 1.13,-1.3 2.78,-2.09 4.35,-2.09 2.87,0 4.52,1.65 4.52,4.52 v 9.65 c 0,0.35 -0.35,0.61 -1.13,0.61 h -0.09 c -0.78,0 -1.13,-0.26 -1.13,-0.61 v -9.39 c 0,-1.65 -1.04,-2.69 -2.87,-2.69 -1.22,0 -2.61,0.78 -3.48,1.91 v 10.17 c 0,0.35 -0.35,0.61 -1.13,0.61 h -0.09 c -0.79,-0.01 -1.14,-0.27 -1.14,-0.61 z m 16.08,-12 h -1.39 c -0.35,0 -0.52,-0.26 -0.52,-0.87 v -0.35 c 0,-0.61 0.17,-0.87 0.52,-0.87 h 1.39 l 0.35,-2.95 c 0,-0.35 0.35,-0.61 0.87,-0.61 h 0.26 c 0.61,0 0.87,0.26 0.87,0.61 v 2.95 h 2.35 c 0.35,0 0.52,0.26 0.52,0.87 v 0.35 c 0,0.61 -0.17,0.87 -0.52,0.87 h -2.35 v 8.6 c 0,1.65 0.7,2.09 1.48,2.09 0.78,0 0.96,-0.17 1.22,-0.17 0.35,0 0.61,1.04 0.61,1.3 0,0.73 -1.15,0.86 -1.87,0.87 h -0.13 c -1.37,0 -3.5,-0.59 -3.56,-3.67 z m 14.51,-2.17 c 3.82,0 5.74,2.52 5.74,7.21 0,0.35 -0.61,1.13 -0.96,1.13 h -8.78 c 0.26,3.04 1.56,4.43 4.26,4.43 2.43,0 3.74,-1.13 4.08,-1.13 0.35,0 0.96,1.04 0.96,1.39 0,0.7 -2.17,1.74 -4.95,1.74 -4.61,0 -6.78,-2.35 -6.78,-7.3 0,-4.86 2.18,-7.47 6.43,-7.47 z m 3.22,6.34 c 0,-2.87 -1.13,-4.35 -3.3,-4.35 -2.43,0 -3.65,1.48 -3.91,4.35 z m 6.26,7.74 v -9.73 -0.32 c -0.03,-2.04 -0.34,-3.07 -0.34,-3.15 0,-0.52 1.13,-0.61 1.48,-0.61 0.7,0 0.78,1.13 0.96,1.82 0.96,-1.3 2.09,-2.09 3.22,-2.09 1.04,0 1.65,0.43 1.65,1.04 0,0.52 -0.26,1.48 -0.52,1.48 -0.35,0 -0.61,-0.26 -1.56,-0.26 -1.48,0 -2.52,1.65 -2.52,1.65 v 10.17 c 0,0.35 -0.35,0.61 -1.13,0.61 H 418 c -0.81,0 -1.15,-0.26 -1.15,-0.61 z m 9.99,-9.73 c 0,-2.26 -0.35,-3.39 -0.35,-3.48 0,-0.52 1.13,-0.61 1.48,-0.61 0.7,0 0.78,1.13 0.96,1.82 1.13,-1.3 2.78,-2.09 4.35,-2.09 2.87,0 4.52,1.65 4.52,4.52 v 9.65 c 0,0.35 -0.35,0.61 -1.13,0.61 h -0.09 c -0.78,0 -1.13,-0.26 -1.13,-0.61 v -9.39 c 0,-1.65 -1.04,-2.69 -2.87,-2.69 -1.22,0 -2.61,0.78 -3.48,1.91 v 10.17 c 0,0.35 -0.35,0.61 -1.13,0.61 h -0.09 c -0.78,0 -1.13,-0.26 -1.13,-0.61 z m 21.12,-4.35 c 3.82,0 5.74,2.52 5.74,7.21 0,0.35 -0.61,1.13 -0.96,1.13 h -8.78 c 0.26,3.04 1.56,4.43 4.26,4.43 2.43,0 3.74,-1.13 4.08,-1.13 0.35,0 0.96,1.04 0.96,1.39 0,0.7 -2.17,1.74 -4.95,1.74 -4.61,0 -6.78,-2.35 -6.78,-7.3 -0.09,-4.86 2.17,-7.47 6.43,-7.47 z m 3.21,6.34 c 0,-2.87 -1.13,-4.35 -3.3,-4.35 -2.43,0 -3.65,1.48 -3.91,4.35 z m 6.7,-4.17 h -1.39 c -0.35,0 -0.52,-0.26 -0.52,-0.87 v -0.35 c 0,-0.61 0.17,-0.87 0.52,-0.87 h 1.39 l 0.35,-2.95 c 0,-0.35 0.26,-0.61 0.87,-0.61 h 0.26 c 0.61,0 0.87,0.26 0.87,0.61 v 2.95 h 2.35 c 0.35,0 0.52,0.26 0.52,0.87 v 0.35 c 0,0.61 -0.17,0.87 -0.52,0.87 h -2.35 v 8.6 c 0,1.65 0.7,2.09 1.48,2.09 0.78,0 0.96,-0.17 1.22,-0.17 0.35,0 0.61,1.04 0.61,1.3 0,0.73 -1.15,0.86 -1.87,0.87 h -0.13 c -1.37,0 -3.5,-0.59 -3.56,-3.67 z"
         id="path497" /><path
         class="st1"
         d="m 223.91,152.86 c 7.3,0 14.08,2.61 14.08,4.61 0,1.22 -1.56,4.26 -2.52,4.26 -0.78,0 -4.35,-3.22 -11.47,-3.22 -13.04,0 -17.29,7.56 -17.29,20.42 0,11.3 3.39,20.86 16.51,20.86 h 0.5 c 3.65,-0.04 7.15,-0.45 8.97,-0.95 v -14.86 h -8.6 c -1.04,0 -1.48,-0.7 -1.48,-2.17 v -1.22 c 0,-1.56 0.43,-2.17 1.48,-2.17 h 12.95 c 1.56,0 2.17,0.7 2.17,2.17 v 19.55 c 0,4.17 -8,5.3 -16.43,5.3 -14.69,0 -22.77,-8.26 -22.77,-25.81 0.01,-18.43 8.52,-26.77 23.9,-26.77 z m 22.95,50.67 v -25.9 c 0,-6.01 -0.85,-8.88 -0.87,-9.28 v -0.01 c 0,-1.39 3.04,-1.74 4,-1.74 1.74,0 2.17,2.95 2.61,4.87 2.52,-3.56 5.48,-5.56 8.52,-5.56 2.87,0 4.26,1.22 4.26,2.87 0,1.39 -0.61,4 -1.48,4 -0.96,0 -1.56,-0.78 -4.08,-0.78 -3.82,0 -6.78,4.52 -6.78,4.52 v 27.03 c 0,1.04 -0.87,1.65 -2.95,1.65 h -0.26 c -2.1,-0.02 -2.97,-0.63 -2.97,-1.67 z m 38.67,-37.63 c 10.08,0 15.21,6.69 15.21,19.21 0,0.87 -1.56,3.04 -2.43,3.04 h -23.29 c 0.61,8.17 4.08,11.91 11.38,11.91 6.43,0 9.99,-3.13 10.78,-3.13 1.04,0 2.61,2.87 2.61,3.65 0,1.74 -5.82,4.69 -13.3,4.69 -12.13,0 -17.96,-6.13 -18.07,-19.07 v -0.39 c -0.1,-12.96 5.81,-19.91 17.11,-19.91 z m 8.61,17.03 c 0,-7.73 -2.96,-11.65 -8.86,-11.65 -6.43,0 -9.82,3.91 -10.34,11.65 z m 29.63,-17.03 c 10.08,0 15.21,6.69 15.21,19.21 0,0.87 -1.56,3.04 -2.43,3.04 h -23.29 c 0.61,8.17 4.08,11.91 11.39,11.91 6.43,0 9.99,-3.13 10.78,-3.13 1.04,0 2.61,2.87 2.61,3.65 0,1.74 -5.82,4.69 -13.3,4.69 -12.25,0 -18.08,-6.26 -18.08,-19.47 -0.01,-12.95 5.81,-19.9 17.11,-19.9 z m 8.69,17.03 c 0,-7.73 -2.95,-11.65 -8.86,-11.65 -6.43,0 -9.82,3.91 -10.34,11.65 z m 13.21,20.42 v -25.72 -0.46 c -0.04,-5.69 -0.85,-8.43 -0.87,-8.82 v -0.01 c 0,-1.39 3.04,-1.74 4,-1.74 1.74,0 2.17,2.95 2.61,4.87 3.13,-3.48 7.39,-5.56 11.47,-5.56 7.56,0 11.99,4.52 11.99,11.91 v 25.55 c 0,1.04 -0.87,1.65 -2.96,1.65 h -0.26 c -2.09,0 -2.96,-0.61 -2.96,-1.65 v -25.03 c 0,-4.52 -2.69,-7.13 -7.56,-7.13 -3.3,0 -6.87,2 -9.3,5.13 v 27.03 c 0,1.04 -0.87,1.65 -2.96,1.65 h -0.26 c -2.07,-0.02 -2.94,-0.62 -2.94,-1.67 z"
         id="path499" /><path
         class="st2"
         d="m 388.08,192.49 c 1.3,0 4.95,3.39 10.86,3.39 h 0.21 c 3.09,-0.04 6.74,-1.06 6.74,-5.39 0,-8.69 -21.29,-5.3 -21.29,-22.68 0,-10.86 8.86,-15.12 17.47,-15.12 7.82,0 13.3,2.69 13.3,5.13 0,2 -2.26,6.43 -4.08,6.43 -0.96,0 -3.22,-1.82 -8.17,-1.82 -5.74,0 -6.87,2.69 -6.87,4.35 0,8.43 21.29,5.04 21.29,22.34 0,12.25 -8.6,16.34 -16.69,16.34 -11.21,0 -17.29,-4 -17.29,-6.52 0,-2.19 2.96,-6.45 4.52,-6.45 z m 51.71,-26.68 c 11.73,0 17.82,7.04 17.82,19.81 0,12.86 -6.08,19.9 -17.82,19.9 -11.74,0 -17.9,-7.04 -17.9,-19.9 0,-12.86 6.17,-19.81 17.9,-19.81 z m 6.78,20.03 v -0.22 c 0,-7.39 -2.09,-11.21 -6.78,-11.21 -4.69,0 -6.87,3.82 -6.87,11.21 0,7.39 2.17,11.3 6.87,11.3 4.65,0 6.74,-3.83 6.78,-11.08 z m 34.76,-20.03 h 0.31 c 5.18,0.07 11.94,1.8 11.94,5.13 0,1.39 -2.69,5.65 -3.91,5.65 -0.26,0 -0.7,-0.26 -1.3,-0.52 l -0.29,-0.15 c -1.3,-0.67 -3.24,-1.5 -6.14,-1.5 -5.85,0 -8.29,3.58 -8.34,10.99 v 0.23 c 0,7.56 2.26,11.3 7.91,11.3 3.48,0 5.82,-1.04 7.21,-1.74 l 0.23,-0.1 c 0.49,-0.2 0.84,-0.34 1.07,-0.34 1.65,0 3.82,4.17 3.82,5.56 0,4.17 -10.52,5.13 -12.86,5.13 -12.6,0 -18.6,-6.43 -18.6,-19.64 0.01,-13.05 5.74,-20 18.95,-20 z m 17.82,-14.08 c 0,-1.54 1.26,-2.32 4.27,-2.35 h 2.25 c 3.13,0 4.43,0.78 4.43,2.35 v 29.2 l 0.26,0.09 8.95,-13.38 c 0.85,-1.18 2.27,-1.38 4.35,-1.39 h 2.86 c 2.78,0 4.17,0.43 4.17,1.13 0,0.33 -0.23,0.81 -0.62,1.37 l -10.33,14.71 11.99,19.03 0.3,0.58 c 0.19,0.38 0.31,0.68 0.31,0.98 0,0.7 -1.3,1.13 -4.17,1.13 h -3.13 -0.33 c -2,-0.03 -3.44,-0.32 -4.1,-1.39 l -10.25,-16.95 -0.26,0.09 v 15.9 c 0,1.56 -1.3,2.35 -4.43,2.35 h -2.09 c -3.13,0 -4.43,-0.78 -4.43,-2.35 z"
         id="path501" /><g
         transform="translate(4.366437,16.640467)"
         id="g631">
	<path
   d="m 59.55,168.38 c -4.43,2.09 -16.16,11.47 -18.42,14.25 -2.35,2.78 -3.04,-1.56 -0.61,-8.78 1.91,-5.82 6.78,-13.73 14.95,-20.51 4.78,-3.91 15.3,-9.56 21.73,-12.86 1.3,-0.7 18.16,-7.82 33.2,-11.38 1.3,-0.35 -1.56,2.17 -2,3.56 -2.26,6.6 -47.36,34.94 -47.36,34.94 z"
   id="path503" />
	<path
   d="m 123.08,248.07 c 0.78,4.69 0.09,5.04 -4.78,5.65 -4.87,0.61 -8.43,-1.22 -9.73,-2.43 -1.3,-1.22 -1.56,-3.91 -0.26,-6.34 0.78,-1.56 1.56,-2.09 2,-4 0.43,-1.82 0.78,-2.26 1.13,-2.95 0.35,-0.61 0.43,-1.22 0.52,-5.48 0.09,-4.26 0,-12.25 0.43,-15.64 0.43,-3.48 15.47,1.56 15.47,1.56 0,0 -3.56,8.86 -4.52,11.04 -0.96,2.17 -0.87,6.34 -0.87,7.21 0,0.87 -0.35,2.61 -0.61,2.69 -0.26,0.09 0.87,2.35 0.35,3.65 -0.34,1.21 0.79,4.34 0.87,5.04 z"
   id="path505" />
	<path
   d="m 128.82,115.19 c -0.52,-3.3 0,-9.82 0.7,-10.86 2.17,-2.96 13.64,-3.3 16.08,0.17 1.04,1.56 0.96,5.21 0.78,7.56 -0.17,2.35 -0.78,7.39 -0.87,9.04 -0.09,1.22 -12.69,3.13 -15.47,-0.17 -0.79,-0.87 -1.22,-5.74 -1.22,-5.74 z"
   id="path507" />
	<path
   d="m 154.37,239.64 c 5.3,3.82 9.39,4.52 12.08,5.91 2.69,1.39 2,4.08 -2.52,4.87 -3.65,0.7 -9.39,-0.7 -13.21,-0.7 -3.82,0 -12.34,0.43 -14.6,-1.13 -2.61,-1.82 -1.48,-5.21 -1.48,-5.21 0.7,-1.91 2.43,-6.17 1.91,-9.65 -0.52,-3.48 -1.22,-5.39 -2.52,-8.6 -1.3,-3.22 -2.26,-11.12 -1.04,-11.56 1.22,-0.43 0.87,0 2.43,0.35 1.56,0.35 3.3,0.87 6.69,0.87 3.39,0 7.13,-0.52 8.43,-0.78 1.3,-0.26 2.35,-0.52 1.91,2.17 -0.43,2.69 -1.74,7.73 -1.82,11.65 -0.09,3.91 -0.09,8.43 0.17,9.21 0.27,0.77 2.18,1.64 3.57,2.6 z"
   id="path509" />
	<g
   transform="translate(2.129563,1.282519)"
   id="g609">
		<g
   transform="translate(0,20.364227)"
   id="g515">
			<path
   class="st2"
   d="m 133.64,102.23 c -9.56,8.26 -28.07,10.52 -55.53,21.12 -7.04,2.69 -25.81,10.78 -30.33,19.21 15.21,-8.78 20.86,3.3 22.07,15.73 1.13,11.65 6.95,17.73 21.9,17.38 15.38,-0.35 20.08,8.6 24.33,19.12 8.26,-40.24 21.47,-48.06 29.98,-54.92 18.09,-14.69 -4.16,-40.59 -12.42,-37.64 z"
   id="path511" />
			<path
   class="st2"
   d="m 133.64,102.23 c -22.94,8 -45.63,9.99 -72.31,26.42 -6.34,3.91 -19.73,12.77 -22.34,29.72 9.73,-10.78 32.24,-24.33 59.79,-32.94 13.91,-4.35 24.07,-7.21 36.41,-11.99 -0.85,-5.56 -0.85,-7.73 -1.55,-11.21 z"
   id="path513" />
		</g>
		<path
   d="m 162.93,170.22 c 0,0 -1.65,5.65 -4.95,7.47 0,0 -2.43,0.87 -7.3,-1.82 -1.39,-0.78 -2.43,-3.48 -2.35,-4.35 0.09,-2.09 1.39,-3.04 1.39,-3.04 0,0 1.39,-2.35 3.04,-2.26 1.65,0.09 4.43,0.35 5.3,-0.43 0.78,-0.87 5.04,1.56 4.87,4.43 z"
   id="path517" />
		<path
   d="m 127.47,115.56 c 0,0 -0.35,4.43 -0.96,7.21 -0.09,0.52 -2.69,0.78 -4.61,1.56 3.65,10.43 25.64,10.34 28.51,5.21 -1.39,-0.96 -4.17,-2.43 -5.47,-2.95 -1.3,-0.52 -1.22,-0.43 -1.3,-2.87 -0.09,-2.43 -0.26,-6.95 -0.43,-8.17 -0.18,-1.21 -13.65,-1.21 -15.74,0.01 z"
   id="path519" />
		<path
   class="st3"
   d="m 128.34,115.56 c 0,0 0,2.52 -0.26,4.95 -0.09,1.13 -0.17,1.82 -0.35,2.69 -0.09,0.52 2.95,2.61 3.82,7.21 4.17,9.3 13.82,4.69 17.82,0.26 -1.39,-0.96 -3.65,-2.26 -6.26,-3.3 -1.3,-0.52 -0.7,-1.65 -0.78,-4.08 -0.09,-2.43 -0.43,-6 -0.61,-7.3 -0.17,-1.3 -11.29,-1.65 -13.38,-0.43 z"
   id="path521" />
		<path
   d="m 127.47,115.56 c 0,0 -0.09,1.56 -0.35,3.39 1.13,1.13 2.61,2.69 3.74,3.65 0.78,0.7 2.69,0.61 4.43,0.61 1.56,0 2.95,0.17 3.56,-0.17 1.39,-0.7 3.39,-2.43 4.52,-3.74 -0.09,-1.56 -0.17,-3.04 -0.26,-3.74 -0.08,-1.22 -13.55,-1.22 -15.64,0 z"
   id="path523" />
		<path
   d="m 135.38,122.16 c -1.04,0 -2.26,-0.09 -3.22,-0.26 -0.43,-0.09 -0.87,-0.35 -1.22,-0.52 -0.61,-0.43 -1.22,-0.96 -1.91,-1.48 -1.39,-1.04 -1.48,-1.65 -1.48,-1.91 0.61,-5.48 -0.17,-10.08 -0.17,-10.08 0,0 -0.61,-2.35 2.69,-2.96 3.3,-0.61 5.3,-0.7 5.3,-0.7 0,0 2.09,0 5.3,0.7 3.3,0.61 2.69,2.96 2.69,2.96 0,0 -0.78,4.61 -0.17,10.08 0,0.26 -0.09,0.87 -1.48,1.91 -1.22,0.87 -2.17,1.82 -3.13,2 -0.94,0.18 -2.16,0.26 -3.2,0.26 z"
   id="path525" />
		<path
   d="m 135.38,102 c -5.74,0 -6.87,1.56 -8.52,3.3 -0.35,0.43 -0.09,3.04 0.52,8.6 h 0.78 c 0,0 -0.52,-1.56 -0.43,-3.39 0.09,-1.82 0.43,-1.74 0.17,-2.17 -0.35,-0.52 -1.04,-1.39 0.52,-2.26 1.56,-0.87 4,0.7 6.95,0.78 2.95,-0.09 5.47,-1.65 7.04,-0.78 1.56,0.87 0.87,1.74 0.52,2.26 -0.35,0.52 0.09,0.35 0.17,2.17 0.09,1.82 -0.43,3.39 -0.43,3.39 h 0.78 c 0.52,-5.56 0.87,-8 0.61,-8.43 -1.47,-1.91 -2.95,-3.38 -8.68,-3.47 z"
   id="path527" />
		<path
   d="m 162.93,170.48 c 0,0 -1.65,5.3 -4.87,7.13 -0.7,-0.35 -0.61,-0.87 -1.22,-1.65 -0.17,-0.26 -0.78,-0.43 -1.04,-0.7 -0.26,-0.26 -0.17,-0.7 -0.61,-1.04 -0.35,-0.35 -0.61,-0.09 -0.96,-0.35 -0.35,-0.35 -0.43,-0.78 -0.7,-1.04 -0.17,-0.17 -0.87,-0.26 -1.04,-0.43 -0.43,-0.43 -4.26,-1.22 -4.08,-2.09 0.35,-1.3 1.04,-2.26 1.04,-2.26 0,0 1.65,-2.43 3.3,-2.35 1.65,0.09 3.22,0.43 4.08,-0.35 0.97,-0.86 6.36,2.35 6.1,5.13 z"
   id="path529" />
		<path
   d="m 151.63,132.07 c 0,0 5.47,-1.3 9.21,2.26 3.74,3.65 3.48,8.17 2.35,10.95 0.96,1.13 2.69,4.26 1.39,8 5.74,4.87 3.22,12.34 -1.91,17.29 0,0 -1.22,-4.52 -6.08,-4.78 0.17,-1.74 -4.52,-3.13 -2.35,-7.65 -3.3,-0.78 -3.22,-3.04 -3.74,-5.82 -0.43,-2.78 1.13,-20.25 1.13,-20.25 z"
   id="path531" />
		<path
   class="st3"
   d="m 149.63,134.5 c 0,0 6.34,-3.22 10.08,0.43 3.74,3.65 2.69,7.65 1.56,10.43 0.96,1.13 3.22,4.35 1.82,8.17 -0.26,0.87 -2.17,0.87 -3.56,3.13 3.48,-2 5.65,-1.48 6.43,1.04 1.22,3.91 -1.48,8.6 -3.82,11.21 0,-0.09 -0.09,-0.17 -0.09,-0.26 -0.35,1.3 -0.78,3.82 -3.39,6.6 -1.3,1.39 -2.35,1.22 -3.82,0.87 -1.74,-0.43 -2.35,-1.22 -4.78,-2.52 -1.39,-0.78 -0.61,-1.74 -0.61,-2.52 0,-0.17 0.17,-0.43 0.43,-0.78 0.17,-0.43 0.7,-1.13 1.48,-1.91 0,0 1.13,-1.56 2.78,-1.48 1.65,0.09 3.39,-0.26 3.82,-0.7 v 0 c 0,-3.04 -3.48,-3.13 -2.26,-8.34 0.09,-0.26 0.52,-0.7 1.91,-0.87 -2.09,-0.43 -3.04,-0.52 -4.52,-1.91 -1.04,-0.96 -1.82,-2.17 -2.09,-3.74 -0.5,-2.68 -1.37,-16.85 -1.37,-16.85 z"
   id="path533" />
		<path
   d="m 131.29,129.03 c -0.52,-0.7 -3.22,-4.17 -8.34,-5.56 -1.48,-0.43 -2.43,0.78 -3.91,1.65 -0.43,-0.26 -2.35,-1.13 -3.39,-0.52 -1.04,0.61 -1.74,1.22 -2.78,1.65 -0.52,-0.26 -1.91,-0.26 -3.04,0.17 -1.13,0.35 -2.87,1.13 -4.52,3.39 -1.04,3.74 18.42,0.96 18.42,0.96 z"
   id="path535" />
		<path
   class="st2"
   d="m 131.47,129.03 c -2.78,-0.96 -2.35,-4.17 -8.52,-4.69 -1.22,-0.09 -2,0.87 -2.87,1.48 0.43,0.43 0.87,1.13 1.13,1.82 -0.78,-0.87 -2.17,-2 -3.56,-2.26 -1.3,-0.26 -2.17,0.7 -3.56,1.39 0.26,0.26 0.52,0.7 0.87,1.22 -1.22,-0.78 -2.09,-1.04 -3.74,-0.43 -1.13,0.35 -3.3,1.3 -4.95,3.65 -1.04,3.74 17.56,-0.43 17.56,-0.43 z"
   id="path537" />
		<path
   d="m 147.81,130.42 c 0,0 0,-0.96 -0.09,-1.82 0,-0.17 -0.7,-0.61 -0.7,-0.78 l -0.17,-0.17 c 0,0 1.39,-0.78 2.43,-0.35 1.13,0.35 1.74,1.82 1.74,1.82 2,-0.7 2.17,0.09 3.13,1.13 2.09,-0.43 2.35,0.35 3.65,2.26 0,0 -1.56,-0.26 -4.61,0.26 -2.95,0.43 -5.38,-2.44 -5.38,-2.35 z"
   id="path539" />
		<path
   class="st2"
   d="m 147.46,129.98 c 0,0 0.52,-0.43 0.35,-0.52 0.96,-0.52 2.26,-1.13 2.87,0.52 2,-0.7 2.26,0.26 3.22,1.3 2.43,-1.13 2.61,0.26 2.78,0.87 -0.78,0 -1.91,0.09 -3.48,0.26 -2.96,0.44 -5.83,-2.51 -5.74,-2.43 z"
   id="path541" />
		<path
   d="m 117.91,127.81 c 0,0 4.95,1.74 9.13,1.48 4.17,-0.35 11.3,-0.7 15.12,1.56 0,0 3.91,-1.39 7.56,-0.43 3.65,0.96 10.34,7.21 8.34,13.82 -0.17,0.43 -1.3,1.13 -2.61,1.56 0,0 0.7,2.95 -0.52,5.39 -1.22,2.35 -3.91,6.87 -4,13.12 v 0 c -0.09,1.04 -0.26,3.22 -0.43,4.26 -6.78,-0.26 -17.21,-2.78 -27.46,-2.61 0.09,-1.13 0.17,-1.82 0.26,-2.95 h 0.26 c -0.52,-2.87 -0.7,-4.35 -1.22,-6.52 -3.3,-2.09 -6.78,-4.52 -9.73,-9.13 -2.87,-4.6 5.3,-19.55 5.3,-19.55 z"
   id="path543" />
		<path
   d="m 151.46,174.74 c 0,0 5.39,19.29 -0.96,27.38 0,0 0.96,3.74 -1.22,7.73 -0.35,1.74 -0.78,3.3 -1.04,5.04 -1.13,7.21 -3.04,10.25 -3.56,21.81 l -5.21,-0.09 c 0,0 -0.61,-8.34 -2.43,-12.78 -1.04,-2.52 -5.13,-5.91 -4.95,-9.3 0.17,-2.61 0.7,-4.78 5.13,-8.26 0.35,-5.04 -4.69,-9.82 -3.91,-28.59 z"
   id="path545" />
		<path
   class="st3"
   d="m 149.89,173.96 c 1.39,8.86 4.61,21.99 -1.22,28.42 0.26,1.22 0.43,2.96 0.09,4.95 -0.17,1.04 -0.52,2.17 -0.96,3.39 -0.87,2.09 -1.22,5.13 -1.48,6.95 -1.13,7.21 -1.13,7.56 -1.65,19.12 l -5.21,-0.09 c 0,0 -0.61,-8.34 -2.43,-12.77 -1.04,-2.52 -3.22,-4.69 -3.39,-8.08 -0.17,-2.61 1.65,-7.82 6,-7.65 -0.26,-10.52 -5.13,-8.43 -6.43,-30.33 z"
   id="path547" />
		<path
   class="st3"
   d="m 117.91,127.81 c 0,0 1.91,0.61 4,0.78 2.09,0.17 4.35,0 6.34,-0.09 4.17,-0.35 10.08,-0.78 13.99,1.48 0,0 2.17,-0.7 4.52,-0.52 1.04,0.09 2.09,0.96 3.3,1.3 3.82,0.96 7.47,7.3 5.82,13.04 -0.17,0.43 -1.39,0 -2.78,0.43 0.26,1.22 0.43,4 -0.96,6.95 -1.48,2.96 -3.39,6.78 -3.04,14.08 -9.13,-0.43 -13.21,-1.04 -22.25,-1.48 -0.78,-3.22 -1.3,-6.43 -1.39,-8.08 1.22,-0.61 1.91,-1.13 2.87,-2.17 -2.61,0.43 -3.65,0.26 -5.21,-0.61 -1.56,-0.87 -4.35,-3.65 -5.74,-5.47 -0.17,-0.17 -1.13,2.69 -3.3,2.78 -0.78,-1.13 2.52,-4.35 1.91,-5.56 -2.16,-4.43 1.92,-16.86 1.92,-16.86 z"
   id="path549" />
		<path
   d="m 150.59,166.74 c 0,0 0.17,3.13 0.17,3.91 0,0.87 0.7,3.48 0.78,4.69 -0.96,1.65 -5.13,5.39 -12.69,6.78 -7.47,1.56 -17.38,-10.17 -17.38,-10.17 0.26,-1.13 1.13,-4.43 1.74,-6.17 0.09,-0.17 0.26,-0.61 0.26,-0.78 0.79,-1.12 27.12,1.74 27.12,1.74 z"
   id="path551" />
		<path
   class="st3"
   d="m 148.68,167.01 c 0,2.17 0.35,3.74 0.61,5.13 0.43,2.52 1.13,4.17 1.13,5.82 0,5.04 -6.6,4.17 -12.17,4.35 -7.47,1.56 -13.82,-10.17 -13.82,-10.17 0.52,-2 0.87,-4.26 1.65,-6.17 v 0 c 0.09,-1.04 0.26,-2.35 0.35,-2.95 10.6,0 18.08,0.61 22.42,1.04 0.17,0.95 0,2.6 -0.17,2.95 z"
   id="path553" />
		<path
   d="m 140.33,178.22 c 0,0 -4.61,-10.25 -18.42,-7.21 -3.3,9.3 -7.73,19.99 -4.87,31.55 -2.87,3.91 -6.17,6.08 -6.17,13.3 0,7.21 0.35,8.43 0.35,8.43 l 10.17,0.52 c 0,0 3.3,-4.26 4.61,-8.86 0.35,-1.3 0.7,-3.65 0.43,-6.34 0.35,-0.52 1.82,-1.74 2,-4.08 0,0 4.95,-2.61 7.82,-8.95 2.69,-5.76 2,-10.72 4.08,-18.36 z"
   id="path555" />
		<path
   class="st3"
   d="m 140.33,178.22 c -0.26,-0.96 -3.74,-10.34 -16.6,-7.56 -7.56,20.16 -4.78,28.51 -3.65,32.16 -5.13,6.52 -7.47,7.91 -6.43,21.12 h 6.78 c 3.13,-4.95 3.82,-6.78 4,-13.3 0,-0.26 -0.96,0.52 -1.65,1.39 0.52,-2.69 2,-3.22 3.13,-4.87 0.52,-0.7 0.96,-1.74 0.96,-3.13 6.08,-4.08 8.34,-9.21 9.65,-14.51 1.03,-3.66 2.25,-9.65 3.81,-11.3 z"
   id="path557" />
		<path
   d="m 118.87,164.23 c 0,0 2.35,0.09 4.43,0.78 2,0.7 2,1.13 2.78,2 0.78,0.87 2.69,2.17 2.35,3.48 -0.17,0.7 -0.61,0.87 -1.22,1.48 -0.26,0.26 -2.17,2.35 -2.61,2.61 -0.26,0.17 -0.61,0.43 -0.87,0.61 -0.26,0.17 -1.04,0.7 -1.3,0.87 -0.87,0.43 -1.48,0.7 -2.43,0.61 0,0 -2.17,-0.09 -3.56,-1.56 0,0 -0.17,-0.7 0.17,-1.04 0,0 -1.83,-1.56 -2.35,-2.61 -0.52,-1.04 -0.52,-2.52 -0.17,-3.3 0.17,-0.81 3.56,-2.98 4.78,-3.93 z"
   id="path559" />
		<path
   d="m 121.04,248.78 -0.26,2.17 c 0,0 -0.78,0.96 -6.6,0.87 -5.91,-0.09 -7.47,-1.91 -8,-2.87 l -0.35,-2.26 c 0,0 1.13,-1.65 1.39,-1.65 1.91,0.17 8.43,2.78 12.95,3.48 0.44,0 0.52,0.18 0.87,0.26 z"
   id="path561" />
		<path
   d="m 133.64,244.35 c 0,0.96 -0.09,0.96 -0.09,1.91 1.04,0.78 3.65,1.22 8.6,1.13 7.21,-0.17 13.91,2.17 22.07,0.78 l 0.09,-1.56 -0.78,-0.09 -28.94,-2.35 z"
   id="path563" />
		<path
   d="m 139.99,247.39 c 0.7,0 1.39,0 2.17,0 4.69,-0.17 9.13,0.87 13.91,1.13 2.52,-0.09 5.65,-0.7 5.39,-2.52 l -24.68,-2.09 c -1.49,1.66 -0.36,3.05 3.21,3.48 z"
   id="path565" />
		<path
   d="m 111.65,210.81 c 0.78,0.52 6.08,3.65 14.69,3.22 -0.17,1.65 -0.09,4.87 -3.91,10.52 -1.91,2.78 -3.56,7.65 -3.91,13.82 0.09,1.39 0.87,2.61 -0.17,4.43 0.35,1.13 1.74,3.39 2.43,4.78 0.7,1.39 1.04,2.96 -3.56,3.04 -4.69,0.09 -12.25,-0.43 -11.21,-4.08 0.52,-1.91 2,-3.91 2.17,-4.69 0.17,-0.78 0.17,-3.13 1.65,-4.69 1.3,-4.35 0.87,-8.52 0.61,-12.43 -0.44,-4.1 -0.52,-10.62 1.21,-13.92 z"
   id="path567" />
		<path
   d="m 119.74,139.98 c 6.17,-8.26 0.96,-14.86 -8.95,-12.86 -4,0.78 -8,3.56 -8.26,8.6 -1.3,0.17 -4.26,0.35 -5.74,5.74 -1.13,4.17 -1.74,4.95 -3.74,7.04 -1.3,1.48 0.09,4.52 1.04,6.69 3.22,7.47 13.12,8.17 19.81,13.82 2.26,-0.61 4.61,-3.13 5.3,-4.78 -5.65,-6.69 -4.43,-9.3 -6.69,-12.78 2.45,-0.87 8.01,-4.26 7.23,-11.47 z"
   id="path569" />
		<path
   class="st3"
   d="m 118.52,139.46 c 0.35,-0.52 0.96,-1.65 1.22,-2.09 0.09,-0.09 1.04,1.56 1.13,1.48 2.35,-3.82 2.95,-9.39 0.26,-9.91 -0.61,-0.09 -1.74,-0.35 -2.69,-0.7 -1.74,-0.61 -3.3,-0.61 -6.08,-0.09 -3.82,0.7 -7.65,3.48 -7.65,7.47 0,0.26 2.69,1.04 3.48,4.26 -1.3,-1.83 -3.56,-3.82 -6.26,-2.09 -2.87,1.82 -1.39,6 -5.21,10.34 -1.3,1.48 -1.13,3.22 0.26,6.69 2.26,5.48 12.95,8.43 18.77,13.64 1.39,-0.61 2.35,-2 3.04,-3.04 -3.91,-4.08 -5.48,-7.91 -6.6,-10.69 -1.39,-3.22 -2.96,-5.04 -6,-7.47 1.56,0.61 2.78,1.22 3.48,1.74 0.78,0.52 1.91,0.61 2.96,0.26 3.72,-1.29 5.72,-6.5 5.89,-9.8 z"
   id="path571" />
		<path
   d="m 156.32,140.85 c -0.26,3.3 -2.69,1.65 -4,1.04 -2.61,-1.13 -5.21,-1.91 -8.26,-1.91 -3.05,0 -6.95,0.26 -10.34,1.13 -4.69,1.3 -6.08,1.22 -8.17,0.17 -2.09,-1.13 -5.74,-3.91 -5.74,-3.91 0,0 -0.09,0.87 0.78,2 1.13,1.39 3.65,3.13 7.04,4.26 1.65,0.52 2.96,0.17 4.43,-0.17 7.73,-1.91 15.9,-2.26 22.77,1.91 0.35,0.17 1.56,-0.35 2.09,-1.13 0.71,-1.13 -0.6,-3.39 -0.6,-3.39 z"
   id="path573" />
		<path
   class="st4"
   d="m 116.78,173.96 c 0.7,0.43 1.56,0.7 2.52,1.48 0,0 -0.78,0 -1.13,-0.35 -0.43,-0.26 -1.3,-1.04 -1.39,-1.13 z"
   id="path575" />
		<path
   class="st3"
   d="m 141.9,105.04 c -0.26,-0.78 -2.17,-2.17 -6.6,-2.17 -4.78,0 -6.17,1.48 -6.26,2.26 0,0.26 -0.35,3.04 -0.43,4.17 0,0 0,1.39 0.09,3.48 0.09,1.39 0.43,2.17 0.61,4 0.17,1.91 0.7,3.13 1.65,4.69 0.43,0.26 0.78,0.52 1.22,0.61 1.74,0.35 4.78,0.43 6.43,0 0.96,-0.26 2.17,-1.91 2.43,-3.39 0.35,-1.82 0.7,-3.13 0.78,-4.26 0.17,-1.13 0.26,-3.65 0.35,-4.35 0.25,-1.91 -0.19,-4.86 -0.27,-5.04 z"
   id="path577" />
		<path
   d="m 132.77,212.46 c 0,0 4.61,2 15.99,0.26 0,0 -3.22,16.16 -1.74,24.25 0,0 1.48,2.09 12.43,6.08 0,0 4.87,1.22 4.69,3.65 0,0 0.17,0.52 -5.74,0.35 -5.91,-0.17 -11.47,-1.22 -15.38,-1.22 -3.91,0 -8.08,0.17 -8.78,-0.96 -0.78,-1.04 0.17,-3.74 1.3,-5.3 1.22,-1.65 0.87,-2.87 0.78,-5.82 -0.25,-7.73 -6.16,-15.73 -3.55,-21.29 z"
   id="path579" />
		<path
   class="st2"
   d="m 131.82,213.94 c -0.61,0.87 0.09,4.17 0.96,7.39 0.87,3.22 2.78,5.13 3.22,10.43 0.43,5.21 0.52,5.91 -0.96,8.95 -1.48,3.04 -1.91,5.82 3.22,5.91 5.13,0.09 7.91,-0.09 13.12,0.7 5.21,0.78 7.04,1.04 9.91,0.61 2.87,-0.43 3.48,-1.39 2.26,-2.26 -1.22,-0.87 -6.26,-1.82 -8.43,-3.56 -2.09,-1.56 -8,-4.17 -8.08,-4.87 -0.26,-2.35 -0.35,-10.86 0.09,-13.64 0.43,-2.78 1.04,-6.78 1.22,-7.82 0.17,-1.04 1.04,-2.09 -0.43,-1.74 -1.48,0.35 -7.04,1.13 -11.21,0.87 -4.2,-0.28 -4.63,-1.24 -4.89,-0.97 z"
   id="path581" />
		<path
   class="st5"
   d="m 134.77,240.79 c 1.48,0.7 3.65,1.22 5.3,1.22 0,0 -0.61,2.87 0.35,4.61 0.96,1.74 -6.95,0.7 -6.95,0.7 l -0.35,-6.17 z"
   id="path583" />
		<path
   class="st5"
   d="m 157.8,248.26 c 1.39,-0.43 2.35,-2 1.22,-3.48 -1.22,-1.48 -2.26,-1.74 -0.7,-1.82 1.56,-0.09 7.3,3.39 7.3,3.39 l -2.96,2.69 z"
   id="path585" />
		<path
   class="st5"
   d="m 131.56,217.32 c 2,0.7 5.04,0.87 7.65,0.78 2.61,-0.09 6.52,-0.43 9.04,-1.3 2.52,-0.87 1.48,0.96 1.48,0.96 l -1.39,1.3 c 0,0 -3.3,1.3 -8.69,1.22 -6.34,-0.09 -8.26,-0.78 -8.26,-0.78 z"
   id="path587" />
		<path
   class="st5"
   d="m 131.73,221.67 c 2,0.7 5.04,0.87 7.65,0.78 2.61,-0.09 6.08,-0.09 8.6,-1.04 1.04,-0.35 0.43,1.13 0.43,1.13 l -0.43,0.78 c 0,0 -3.39,1.22 -8.69,1.13 -6.34,-0.09 -7.47,-0.61 -7.47,-0.61 z"
   id="path589" />
		<path
   class="st6"
   d="m 132.77,212.46 c 0,0 7.56,2.69 16.08,0.87 0,0 -3.3,15.56 -1.82,23.55 0,0 1.48,2.09 12.43,6.08 0,0 4.87,1.22 4.69,3.65 0,0 0.17,0.52 -5.74,0.35 -5.91,-0.17 -11.47,-1.22 -15.38,-1.22 -3.91,0 -8.08,0.17 -8.78,-0.96 -0.78,-1.04 0.17,-3.74 1.3,-5.3 1.22,-1.65 0.87,-2.87 0.78,-5.82 -0.26,-7.64 -6.17,-15.64 -3.56,-21.2 z"
   id="path591" />
		<path
   class="st6"
   d="m 132.77,212.46 c 0,0 7.56,2.61 16.08,0.78 0,0 -3.3,15.64 -1.82,23.64 0,0 1.48,2.09 12.43,6.08 0,0 4.87,1.22 4.69,3.65 0,0 0.17,0.52 -5.74,0.35 -5.91,-0.17 -11.56,-1.82 -15.38,-1.22 -4.08,0.7 -8.08,0.43 -8.78,-0.96 -0.61,-1.13 0.17,-3.74 1.3,-5.3 1.22,-1.65 0.87,-2.87 0.78,-5.82 -0.26,-7.64 -6.17,-15.64 -3.56,-21.2 z"
   id="path593" />
		<path
   d="m 125.99,160.75 c 0,0.61 6.78,4 10.52,4.69 3.74,0.7 11.56,0 12.78,-0.26 l -0.17,1.22 c 0,0 -9.3,1.39 -16.42,-0.52 -7.13,-1.91 -6.34,-2.35 -6.34,-2.35 z"
   id="path595" />
		<g
   transform="translate(68.077456,109.76256)"
   id="g601">
			<path
   class="st3"
   d="m 43.4,125.12 c 1.04,0.52 4.78,1.48 7.21,0.96 0.35,-0.09 0,-6 0.96,-8.69 1.39,-3.74 3.65,-6.78 4.69,-13.38 -3.65,-0.35 -7.82,-1.3 -9.99,-2 -2.78,8.51 -1.82,15.81 -2.87,23.11 z"
   id="path597" />
			<path
   class="st3"
   d="m 49.23,130.59 c 0.61,0.17 1.04,0.87 1.22,0.43 0.35,-0.78 -0.61,-2.26 -0.7,-3.3 0,-0.09 0,0 0,-0.09 -0.78,-0.7 -6.08,-0.78 -5.74,-0.43 -0.61,1.13 -1.56,0.96 -1.91,3.22 -0.17,1.13 1.22,0.17 2.52,0.09 -2.35,1.56 -5.04,3.56 -5.47,5.3 -0.52,2.43 0.35,3.13 2.96,4.43 2.26,0.52 4.95,0.61 7.04,0.52 2.35,-0.43 2.78,-1.56 2.09,-3.13 -1.06,-2.34 -1.75,-5.39 -2.01,-7.04 z"
   id="path599" />
		</g>
		<path
   d="m 118.26,127.46 c 2.87,1.65 6.87,1.22 8.34,1.13 0.35,0 3.82,-0.61 4,-0.52 0.35,0.09 0.35,0.35 0.35,0.35 0,0 -1.3,0.7 -4.26,0.87 -2.78,0.17 -6.08,0 -7.91,-0.87 -2.17,-0.96 -0.52,-0.96 -0.52,-0.96 z"
   id="path603" />
		<path
   d="m 147.81,129.11 c 0.52,0.35 3.91,1.65 5.39,3.22 1.3,1.39 0.61,1.3 0.35,0.96 -0.35,-0.43 -3.04,-2.26 -4.08,-2.69 -1.04,-0.43 -2.35,-1.22 -2.35,-1.39 0,-0.17 0.69,-0.1 0.69,-0.1 z"
   id="path605" />
		<path
   class="st3"
   d="m 117.82,165.18 c 2.52,-0.17 5.13,0.43 6.78,2.17 0.87,0.87 2.26,1.82 2.09,2.69 0,0.26 -0.52,0.96 -0.96,1.48 -0.26,0.35 -1.04,1.13 -1.3,1.39 -0.35,0.26 -1.56,1.22 -1.82,1.39 -0.26,0.17 -0.61,0.61 -0.87,0.7 -0.87,0.43 -1.82,0.09 -2.69,-0.35 -0.87,-0.43 0.17,-0.52 -0.78,-1.22 -2.35,-1.65 -3.65,-2.78 -2.69,-6 0.07,-0.6 1.03,-1.29 2.24,-2.25 z"
   id="path607" />
	</g>
	<path
   class="st7"
   d="m 97.79,146.56 c -7.82,3.13 -27.72,13.04 -33.37,16.08 v 0 c 4.69,2.95 6.87,10.08 7.56,17.29 0.09,0.7 0.17,1.3 0.26,2 0.09,0.61 0.17,1.04 0.26,1.3 0,0.09 0,0.26 0.09,0.35 5.13,-13.99 23.46,-28.77 24.16,-29.9 0.35,-0.52 -0.43,-2.78 0.78,-4.95 1.57,-2.78 4.61,-3.99 0.26,-2.17 z"
   id="path611" />
	<path
   class="st7"
   d="m 116.39,212.18 c 4,-8 4.08,-15.64 4,-24.59 0,-3.74 2.69,-9.04 1.3,-7.56 -5.21,5.82 -18.34,16.77 -27.81,17.38 13.3,-0.44 18.51,6.25 22.51,14.77 z"
   id="path613" />
	<path
   d="m 56.77,170.03 c 4.95,-3.56 30.59,-17.21 36.76,-19.12 6.17,-2 4.26,-4.35 4.26,-4.35 0,0 -25.03,10.78 -39.98,20.08"
   id="path615" />
	<path
   class="st7"
   d="m 129.77,144.91 c -2,-0.78 -3.56,1.56 -3.04,3.82 0.52,2.26 5.21,4.78 4.95,13.04 -0.17,6.78 -1.65,9.56 -1.65,9.56 l -3.3,-4.17 c 0,0 -0.52,-9.39 -1.65,-10.78 -1.13,-1.39 -4.69,-3.91 -6.08,-5.21 -1.39,-1.3 1.56,-3.04 1.39,-5.48 -0.17,-2.35 1.48,-7.04 1.48,-7.04 z"
   id="path617" />
	<path
   class="st7"
   d="m 141.85,181.93 c -0.17,6.52 1.3,16.16 1.91,20.77 0.61,4.61 1.39,4.95 0,7.04 -1.39,2 -3.22,5.3 -3.22,5.3 l -6,-0.52 c 0,0 4.78,-6.08 5.04,-7.21 0.26,-1.13 -2.43,-9.73 -2.43,-9.73 z"
   id="path619" />
	<path
   class="st7"
   d="m 130.3,121.1 c 1.22,2.69 2.69,3.91 5.04,4.69 1.39,0.52 6.87,1.22 9.04,-1.22 0.96,-1.13 0.35,-4.17 0.35,-4.17 l -4.95,4 -6.69,-1.22 -0.78,-2 z"
   id="path621" />
	<path
   class="st8"
   d="m 130.82,127.09 c 2.26,1.48 7.91,2.87 9.47,3.13 1.56,0.35 4.08,-1.65 5.3,-2.17 1.3,-0.61 3.56,-0.96 6.17,1.39 0.26,0.26 -0.61,1.39 -0.61,1.39 -0.09,-0.09 -0.61,-0.09 -1.3,-0.43 -0.7,-0.35 -1.3,-0.61 -2.35,-0.52 -4.35,0.52 -5.04,2 -8.86,1.13 -3.82,-0.87 -4.78,-1.56 -8.52,-1.39"
   id="path623" />
	<path
   class="st2"
   d="m 130.03,127.36 c 2.87,1.22 8.43,2.52 9.99,2.87 1.56,0.35 4.08,-1.22 5.3,-2 2.17,-1.39 4.95,-0.26 6.26,1.22 0.87,0.96 1.22,1.56 1.22,1.82 0,0.35 -1.04,0 -1.04,0 -0.61,-0.26 -1.3,-0.35 -1.82,-0.7 -0.7,-0.35 -1.39,-0.87 -2.43,-0.78 -4.35,0.52 -5.21,2 -8.95,1.13 -3.74,-0.87 -4.69,-1.65 -8.69,-1.39"
   id="path625" />
	<path
   d="m 116.56,208.53 c -0.17,-0.17 0.17,-0.35 0,-0.35 -1.13,0 -2.69,-0.87 -3.56,-2.09 -3.74,-5.39 -9.21,-8.95 -19.12,-8.69 -14.86,0.35 -20.77,-5.74 -21.9,-17.38 -0.61,-6.34 -2.35,-12.51 -5.91,-15.99 l -2.09,1.3 c 4,3.48 5.3,9.13 6.17,16.86 1.39,11.65 10.78,17.03 21.73,17.21 11.38,0.17 15.47,2.52 19.73,8.26 1.39,1.82 2.96,2.43 4.17,2.69 z"
   id="path627" />
	<path
   class="st7"
   d="m 156.89,152.65 c 0.26,1.3 0.96,3.82 2.35,5.04 0.61,0.61 0.7,0.78 0.17,0.78 -0.52,0 -4.35,-0.17 -4.35,-0.17 l -1.04,-1.82 z"
   id="path629" />
</g></g></g><style
     type="text/css"
     id="style495">
	.st0{fill:#848484;}
	.st1{fill:#262626;}
	.st2{fill:#88CE02;}
	.st3{fill:#EFEFEF;}
	.st4{fill:#001423;}
	.st5{opacity:0.3;enable-background:new    ;}
	.st6{fill-opacity:0;}
	.st7{opacity:0.4;enable-background:new    ;}
	.st8{fill:#88CE02;stroke:#000000;stroke-width:1.586;stroke-linejoin:round;}
</style></svg>
