<?xml version="1.0" encoding="UTF-8" standalone="no"?>
<!-- Created with Inkscape (http://www.inkscape.org/) -->

<svg
   width="120mm"
   height="65mm"
   viewBox="0 0 120 65"
   version="1.1"
   id="svg5"
   inkscape:version="1.2.2 (b0a84865, 2022-12-01)"
   sodipodi:docname="nestjs.svg"
   xml:space="preserve"
   inkscape:export-filename="nestjs.png"
   inkscape:export-xdpi="96"
   inkscape:export-ydpi="96"
   xmlns:inkscape="http://www.inkscape.org/namespaces/inkscape"
   xmlns:sodipodi="http://sodipodi.sourceforge.net/DTD/sodipodi-0.dtd"
   xmlns="http://www.w3.org/2000/svg"
   xmlns:svg="http://www.w3.org/2000/svg"><sodipodi:namedview
     id="namedview7"
     pagecolor="#ffffff"
     bordercolor="#000000"
     borderopacity="0.25"
     inkscape:showpageshadow="2"
     inkscape:pageopacity="0.0"
     inkscape:pagecheckerboard="0"
     inkscape:deskcolor="#d1d1d1"
     inkscape:document-units="mm"
     showgrid="false"
     inkscape:zoom="2.2695959"
     inkscape:cx="216.55838"
     inkscape:cy="155.9749"
     inkscape:window-width="2560"
     inkscape:window-height="1412"
     inkscape:window-x="0"
     inkscape:window-y="0"
     inkscape:window-maximized="1"
     inkscape:current-layer="layer1" /><defs
     id="defs2" /><g
     inkscape:label="Layer 1"
     inkscape:groupmode="layer"
     id="layer1"><rect
       style="font-variation-settings:'wght' 500;fill:#000000;stroke-width:0.249271"
       id="rect234"
       width="119.90182"
       height="65.078247"
       x="0.10950514"
       y="0.10950469" /><g
       style="clip-rule:evenodd;fill:#ffffff;fill-rule:evenodd;image-rendering:optimizeQuality;shape-rendering:geometricPrecision;text-rendering:geometricPrecision"
       id="g435"
       transform="matrix(0.11888995,0,0,0.11888995,29.624587,26.512718)"><path
         d="m 340.36,0.04 h 89.18 V 16.5 h -35.38 v 86.6 H 376.47 V 16.5 H 340.36 Z M 503.8,70.86 c -0.19,-1.82 -1.03,-3.25 -2.49,-4.27 -1.48,-1.03 -3.38,-1.54 -5.72,-1.54 -1.64,0 -3.05,0.25 -4.23,0.74 -1.17,0.49 -2.08,1.15 -2.71,1.99 -0.62,0.84 -0.93,1.8 -0.96,2.87 0,0.9 0.22,1.68 0.64,2.33 0.42,0.66 0.98,1.22 1.71,1.67 0.72,0.46 1.52,0.83 2.4,1.14 0.89,0.31 1.77,0.57 2.66,0.78 l 4.09,1 c 1.64,0.38 3.23,0.89 4.76,1.54 1.52,0.64 2.9,1.45 4.11,2.43 1.21,0.98 2.17,2.16 2.87,3.54 0.71,1.39 1.07,3.01 1.07,4.87 0,2.52 -0.65,4.73 -1.95,6.64 -1.31,1.9 -3.19,3.39 -5.66,4.46 -2.46,1.07 -5.43,1.61 -8.93,1.61 -3.38,0 -6.33,-0.52 -8.81,-1.56 -2.49,-1.03 -4.44,-2.54 -5.84,-4.52 -1.4,-1.99 -2.15,-4.41 -2.26,-7.26 h 7.76 c 0.11,1.49 0.59,2.73 1.41,3.74 0.82,0.99 1.9,1.72 3.22,2.22 1.33,0.48 2.82,0.73 4.46,0.73 1.71,0 3.22,-0.26 4.53,-0.77 1.29,-0.51 2.31,-1.21 3.04,-2.14 0.75,-0.9 1.12,-1.98 1.13,-3.21 -0.01,-1.12 -0.35,-2.05 -0.99,-2.79 -0.66,-0.73 -1.57,-1.34 -2.74,-1.84 -1.17,-0.49 -2.54,-0.94 -4.1,-1.33 l -4.96,-1.25 c -3.58,-0.91 -6.42,-2.3 -8.5,-4.15 -2.08,-1.86 -3.11,-4.31 -3.11,-7.39 0,-2.53 0.69,-4.75 2.1,-6.65 1.39,-1.9 3.29,-3.38 5.7,-4.43 2.42,-1.06 5.15,-1.58 8.2,-1.58 3.09,0 5.8,0.52 8.14,1.58 2.33,1.05 4.17,2.51 5.5,4.38 1.33,1.87 2.02,4 2.06,6.42 z m -40.09,-11.8 h 7.84 v 30.19 c -0.01,2.78 -0.61,5.15 -1.79,7.15 -1.18,2 -2.83,3.52 -4.93,4.59 -2.1,1.07 -4.56,1.61 -7.35,1.61 -2.55,0 -4.84,-0.46 -6.88,-1.36 -2.04,-0.9 -3.66,-2.24 -4.84,-4.01 -1.2,-1.78 -1.79,-3.98 -1.79,-6.63 h 7.85 c 0.01,1.16 0.28,2.16 0.78,3 0.5,0.84 1.2,1.48 2.08,1.93 0.9,0.45 1.94,0.67 3.1,0.67 1.26,0 2.33,-0.26 3.21,-0.79 0.87,-0.52 1.55,-1.3 2.01,-2.34 0.46,-1.03 0.7,-2.3 0.71,-3.82 z m -30.19,43.41 c -1.3,0 -2.4,-0.45 -3.32,-1.35 -0.92,-0.89 -1.38,-1.98 -1.37,-3.27 -0.01,-1.25 0.45,-2.32 1.37,-3.22 0.92,-0.9 2.02,-1.35 3.32,-1.35 1.25,0 2.34,0.45 3.26,1.35 0.93,0.9 1.4,1.97 1.41,3.22 -0.01,0.85 -0.22,1.63 -0.66,2.33 -0.44,0.71 -1,1.26 -1.71,1.67 -0.7,0.41 -1.46,0.62 -2.3,0.62 z m -329,-0.14 L 22.11,0 H 0 V 103.06 H 17.69 V 22.03 L 82.91,103.1 H 193.69 V 86.64 H 122.2 v -27.2 h 57.49 V 42.98 H 122.2 V 16.5 h 71.49 V 0.04 H 104.51 V 16.5 h 0.01 z M 261.98,73.7 250.38,59.28 215.01,103.22 h 23.21 z M 238.22,0.09 h -23.15 l 82.92,103.05 H 321.2 L 279.74,51.65 321.14,0.16 297.99,0.2 268.15,37.26 Z"
         id="path426"
         style="fill:#ffffff" /></g></g></svg>
